inDegrees=no
num_controls=7
num_derivatives=13
num_iterations=78
num_multipliers=7
num_parameters=0
num_slacks=7
num_states=26
objective=0.452861
objective_accelerations=0.048278
objective_balance=0.001060
objective_effort=0.037610
objective_height=0.360280
objective_ligament=0.005634
solver_duration=894.876179
status=Solve_Succeeded
success=true
DataType=double
version=3
OpenSimVersion=4.5
endheader
time	/jointset/ground_pelvis/pelvis_tilt/value	/jointset/ground_pelvis/pelvis_tx/value	/jointset/ground_pelvis/pelvis_ty/value	/jointset/hip_r/hip_flexion_r/value	/jointset/hip_r/hip_adduction_r/value	/jointset/hip_r/hip_rotation_r/value	/jointset/back/lumbar_extension/value	/jointset/patellofemoral_r/patellar_flexion_r/value	/jointset/knee_r/knee_flexion_r/value	/jointset/knee_r/knee_adduction_r/value	/jointset/knee_r/knee_rotation_r/value	/jointset/ankle_r/ankle_angle_r/value	/jointset/subtalar_r/subtalar_angle_r/value	/jointset/ground_pelvis/pelvis_tilt/speed	/jointset/ground_pelvis/pelvis_tx/speed	/jointset/ground_pelvis/pelvis_ty/speed	/jointset/hip_r/hip_flexion_r/speed	/jointset/hip_r/hip_adduction_r/speed	/jointset/hip_r/hip_rotation_r/speed	/jointset/back/lumbar_extension/speed	/jointset/patellofemoral_r/patellar_flexion_r/speed	/jointset/knee_r/knee_flexion_r/speed	/jointset/knee_r/knee_adduction_r/speed	/jointset/knee_r/knee_rotation_r/speed	/jointset/ankle_r/ankle_angle_r/speed	/jointset/subtalar_r/subtalar_angle_r/speed	/forceset/tau_hip_flexion_r	/forceset/tau_hip_adduction_r	/forceset/tau_hip_rotation_r	/forceset/tau_knee_flexion_r	/forceset/tau_ankle_angle_r	/forceset/tau_subtalar_angle_r	/forceset/tau_lumbar_extension	lambda_cid13_p0	lambda_cid14_p0	lambda_cid14_p1	lambda_cid14_p2	lambda_cid14_p3	lambda_cid14_p4	lambda_cid14_p5	/jointset/ground_pelvis/pelvis_tilt/accel	/jointset/ground_pelvis/pelvis_tx/accel	/jointset/ground_pelvis/pelvis_ty/accel	/jointset/hip_r/hip_flexion_r/accel	/jointset/hip_r/hip_adduction_r/accel	/jointset/hip_r/hip_rotation_r/accel	/jointset/back/lumbar_extension/accel	/jointset/patellofemoral_r/patellar_flexion_r/accel	/jointset/knee_r/knee_flexion_r/accel	/jointset/knee_r/knee_adduction_r/accel	/jointset/knee_r/knee_rotation_r/accel	/jointset/ankle_r/ankle_angle_r/accel	/jointset/subtalar_r/subtalar_angle_r/accel	gamma_cid13_p0	gamma_cid14_p0	gamma_cid14_p1	gamma_cid14_p2	gamma_cid14_p3	gamma_cid14_p4	gamma_cid14_p5
1	-0.2185669452651122	-0.0144601078306713	0.6325497948037195	1.423347484089382	-0.2388860759436206	-0.0848334131257053	-0.7853978613752725	1.521489095528264	1.521489095528266	-0.1744697807224085	0.1745128376631377	0.4362969122489766	0.1746556138512673	0.06268013748313163	0.004508194321525186	0.01760947624968373	-0.09922607854683747	-0.0004326384093656632	0.0007985875049705392	8.504368242162575e-05	-0.02705071469807816	-0.02705071469807772	0.009460209675842206	-0.0004142019801866356	0.008613973882078256	0.003583688426384052	-0.3265756800274486	0.04087440369121659	0.01044503862177243	-0.4746201622073906	-0.006021328698670339	-0.001516913143996243	0.3552027826977184	-0.04092562517383567	-54.61358077328698	-15.50294105438859	8.926501904270257	7.781015862122163	-772.0621967900368	60.21927895677817	1.241713402788491	0.1445724987665972	1.871907399029937	-5.540722167416856	0.2747961254211561	-0.7184230598958278	0.001744216641326746	-5.177445002201006	-5.177445002201013	0.5769556408220134	-0.03561723019671354	-1.022640552117646	0.01162424302046092	2.651327237251493e-09	4.706707541206727e-09	2.037280951422392e-08	2.229056268454148e-08	-4.223395123572595e-09	-4.750379540689927e-09	4.219593209355474e-08
1.01	-0.2178791873434006	-0.01440767897672696	0.6328192171107433	1.422079648039984	-0.2388767661256737	-0.08485866734284321	-0.7853945153257932	1.520960446525602	1.520960446525601	-0.1743436584929792	0.1745066594675118	0.4363320658314698	0.1746918436285033	0.07482115663992235	0.005992407012618049	0.03626048952629649	-0.1542808251304504	0.002286545183828806	-0.005825020144828956	0.0007532132819612283	-0.07864905596441812	-0.07864905596441721	0.01579050130740579	-0.0008143880030644119	-0.001565681235445093	0.003655150297664602	-0.327017023270604	0.04087961300195894	0.01049289314997443	-0.4743274428648591	-0.00629486554227834	-0.001490435268965807	0.3558906539729553	-0.04092291652820206	-54.70453064425648	-15.49833725136931	8.91545468373001	7.640644269787087	-772.2662057634211	60.2122224832049	1.192754796233077	0.1525685999112348	1.859521890310059	-5.478802906929353	0.2692780017115073	-0.6306643472746003	0.1247103900335408	-5.146525600321199	-5.146525600321114	0.6650050275804665	-0.04114690718236981	-1.012991461552325	0.003853570858322944	6.916704362067719e-09	1.165689803654898e-08	4.771786193064195e-08	5.463803992842822e-08	-8.141350601801754e-09	-1.023143266817988e-08	1.009953173608199e-07
1.02	-0.2170715275052989	-0.01433996340674544	0.6332747142701997	1.420263074124132	-0.2388405047667065	-0.08494942458242712	-0.7853794161685563	1.519916714727982	1.519916714727976	-0.1741534455265761	0.1744966938878979	0.4362659501688416	0.1747285773067875	0.08666052076105862	0.007565537528963306	0.05482444673622395	-0.2089736518378975	0.004957669794736516	-0.01230201698473363	0.002435665218421592	-0.1300672736895866	-0.1300672736895855	0.02227835706924537	-0.001171678779901134	-0.01163987515227453	0.003684468636001711	-0.3274583665137633	0.04088482231270864	0.01054074767813709	-0.4740347235223323	-0.006568402385884395	-0.001463957393919555	0.3565785252481884	-0.04092781576138706	-54.8032815383022	-15.49090895176455	8.899170348785093	7.503650071509179	-772.594941059606	60.23853694127713	1.181382395657587	0.1623560638170847	1.854496185692878	-5.468338192183719	0.2651843289637775	-0.6891008979168974	0.2046006840252317	-5.141420293966712	-5.141420293966773	0.6084684668772169	-0.02703818098843633	-1.001548311978856	0.00319553643172638	1.132603726247921e-08	1.837924739695151e-08	7.472046882117687e-08	8.608370166367011e-08	-1.18158501323226e-08	-1.706019897797028e-08	1.596032923641984e-07
1.03	-0.2161469486218111	-0.01425609605350237	0.6339154063699186	1.417901413586589	-0.2387778782651096	-0.08510364780406164	-0.7853426134255498	1.518359614820524	1.51835961482052	-0.1738967803119372	0.1744835912956124	0.436099366870694	0.1747650468935708	0.09820584136771704	0.009220365911406006	0.07329823985267661	-0.2632923119767875	0.007550693720752543	-0.01846289127420462	0.005077899118621136	-0.1813312839502699	-0.181331283950271	0.02915523124605738	-0.001424136014579921	-0.02168410811474743	0.003571216371952568	-0.327610792841508	0.040886923216046	0.0106636691304622	-0.473585930103327	-0.006825991562675313	-0.001453941907579341	0.3570289237052946	-0.04094726905057922	-54.88519689339424	-15.48639235151594	8.881876939274875	7.433698385925641	-772.6800010408346	60.23979873129505	1.133699595637458	0.1689080244773147	1.841456049394049	-5.403703738635928	0.2538360026528091	-0.5676121326162876	0.3169871030909223	-5.115680988455243	-5.115680988455507	0.7423771042374456	-0.02061162709836331	-1.006959015362909	-0.02429059996845861	1.573683909937637e-08	2.509927184781385e-08	1.017195813696109e-07	1.175201611998442e-07	-1.548786541847906e-08	-2.390271746309029e-08	2.182093142016189e-07
